HIERARCHY
ROOT Hips
{
	OFFSET 0.000000 121.760803 0.000000
	CHANNELS 6 Xposition Yposition Zposition Xrotation Yrotation Zrotation 
	JOINT Spine
	{
		OFFSET 0.072000 7.257294 -0.789700
		CHANNELS 3 Xrotation Yrotation Zrotation
		JOINT Spine1
		{
			OFFSET 0.000000 12.508769 -0.658067
			CHANNELS 3 Xrotation Yrotation Zrotation
			JOINT Spine1_split
			{
				OFFSET 0.000000 12.508769 -0.658067
				CHANNELS 3 Xrotation Yrotation Zrotation
				JOINT Spine2
				{
					OFFSET 0.000000 12.508769 -0.658067
					CHANNELS 3 Xrotation Yrotation Zrotation
					JOINT Neck
					{
						OFFSET 0.000000 14.033295 7.520400
						CHANNELS 3 Xrotation Yrotation Zrotation
						JOINT Head
						{
							OFFSET 0.000000 8.198502 5.703100
							CHANNELS 3 Xrotation Yrotation Zrotation
							JOINT HeadTop_End
							{
								OFFSET 0.000000 17.760803 13.332701
								CHANNELS 3 Xrotation Yrotation Zrotation
								End Site
								{
									OFFSET 0.000000 0.000000 0.000000
								}
							}
						}
					}
					JOINT LeftShoulder
					{
						OFFSET 6.292450 5.785301 -0.669000
						CHANNELS 3 Xrotation Yrotation Zrotation
						JOINT LeftShoulder_split
						{
							OFFSET 6.292450 5.785301 -0.669000
							CHANNELS 3 Xrotation Yrotation Zrotation
							JOINT LeftArm
							{
								OFFSET 13.907140 -6.093903 1.965100
								CHANNELS 3 Xrotation Yrotation Zrotation
								JOINT LeftForeArm
								{
									OFFSET 34.140198 0.000000 0.000000
									CHANNELS 3 Xrotation Yrotation Zrotation
									JOINT LeftHand
									{
										OFFSET 40.960209 0.000000 0.000000
										CHANNELS 3 Xrotation Yrotation Zrotation
										JOINT LeftHandThumb1
										{
											OFFSET 10.006996 -7.170425 9.573125
											CHANNELS 3 Xrotation Yrotation Zrotation
											JOINT LeftHandThumb2
											{
												OFFSET 1.835007 -1.059448 1.059443
												CHANNELS 3 Xrotation Yrotation Zrotation
												JOINT LeftHandThumb3
												{
													OFFSET 2.112267 -1.219513 1.219518
													CHANNELS 3 Xrotation Yrotation Zrotation
													JOINT LeftHandThumb4
													{
														OFFSET 4.843811 -2.796570 2.796576
														CHANNELS 3 Xrotation Yrotation Zrotation
														End Site
														{
															OFFSET 0.000000 0.000000 0.000000
														}
													}
												}
											}
										}
										JOINT LeftHandIndex1
										{
											OFFSET 18.389847 -0.922348 4.596882
											CHANNELS 3 Xrotation Yrotation Zrotation
											JOINT LeftHandIndex2
											{
												OFFSET 4.711273 0.000000 0.000000
												CHANNELS 3 Xrotation Yrotation Zrotation
												JOINT LeftHandIndex3
												{
													OFFSET 2.886131 0.000000 0.000000
													CHANNELS 3 Xrotation Yrotation Zrotation
													JOINT LeftHandIndex4
													{
														OFFSET 6.145912 0.000000 0.000000
														CHANNELS 3 Xrotation Yrotation Zrotation
														End Site
														{
															OFFSET 0.000000 0.000000 0.000000
														}
													}
												}
											}
										}
										JOINT LeftHandMiddle1
										{
											OFFSET 18.013008 0.000000 0.000000
											CHANNELS 3 Xrotation Yrotation Zrotation
											JOINT LeftHandMiddle2
											{
												OFFSET 4.946693 0.000000 0.000000
												CHANNELS 3 Xrotation Yrotation Zrotation
												JOINT LeftHandMiddle3
												{
													OFFSET 3.342232 0.000000 0.000000
													CHANNELS 3 Xrotation Yrotation Zrotation
													JOINT LeftHandMiddle4
													{
														OFFSET 4.461754 0.000000 0.000000
														CHANNELS 3 Xrotation Yrotation Zrotation
														End Site
														{
															OFFSET 0.000000 0.000000 0.000000
														}
													}
												}
											}
										}
										JOINT LeftHandRing1
										{
											OFFSET 15.849892 -0.102921 -4.126150
											CHANNELS 3 Xrotation Yrotation Zrotation
											JOINT LeftHandRing2
											{
												OFFSET 3.527054 0.000000 0.000000
												CHANNELS 3 Xrotation Yrotation Zrotation
												JOINT LeftHandRing3
												{
													OFFSET 2.961098 0.000000 0.000000
													CHANNELS 3 Xrotation Yrotation Zrotation
													JOINT LeftHandRing4
													{
														OFFSET 4.927200 0.000000 0.000000
														CHANNELS 3 Xrotation Yrotation Zrotation
														End Site
														{
															OFFSET 0.000000 0.000000 0.000000
														}
													}
												}
											}
										}
										JOINT LeftHandPinky1
										{
											OFFSET 12.791824 -0.832031 -6.799156
											CHANNELS 3 Xrotation Yrotation Zrotation
											JOINT LeftHandPinky2
											{
												OFFSET 3.327133 0.000000 0.000000
												CHANNELS 3 Xrotation Yrotation Zrotation
												JOINT LeftHandPinky3
												{
													OFFSET 3.014900 0.000000 0.000000
													CHANNELS 3 Xrotation Yrotation Zrotation
													JOINT LeftHandPinky4
													{
														OFFSET 5.847786 0.000000 0.000000
														CHANNELS 3 Xrotation Yrotation Zrotation
														End Site
														{
															OFFSET 0.000000 0.000000 0.000000
														}
													}
												}
											}
										}
									}
								}
							}
						}
					}
					JOINT RightShoulder
					{
						OFFSET -6.292450 5.785301 -0.669000
						CHANNELS 3 Xrotation Yrotation Zrotation
						JOINT RightShoulder_split
						{
							OFFSET -6.292450 5.785301 -0.669000
							CHANNELS 3 Xrotation Yrotation Zrotation
							JOINT RightArm
							{
								OFFSET -13.907140 -6.093903 1.965100
								CHANNELS 3 Xrotation Yrotation Zrotation
								JOINT RightForeArm
								{
									OFFSET -34.140198 0.000000 0.000000
									CHANNELS 3 Xrotation Yrotation Zrotation
									JOINT RightHand
									{
										OFFSET -40.960209 0.000000 0.000000
										CHANNELS 3 Xrotation Yrotation Zrotation
										JOINT RightHandThumb1
										{
											OFFSET -10.007050 -7.170456 9.573117
											CHANNELS 3 Xrotation Yrotation Zrotation
											JOINT RightHandThumb2
											{
												OFFSET -1.835007 -1.059448 1.059443
												CHANNELS 3 Xrotation Yrotation Zrotation
												JOINT RightHandThumb3
												{
													OFFSET -2.112267 -1.219513 1.219518
													CHANNELS 3 Xrotation Yrotation Zrotation
													JOINT RightHandThumb4
													{
														OFFSET -4.843834 -2.796585 2.796590
														CHANNELS 3 Xrotation Yrotation Zrotation
														End Site
														{
															OFFSET 0.000000 0.000000 0.000000
														}
													}
												}
											}
										}
										JOINT RightHandIndex1
										{
											OFFSET -18.389870 -0.922424 4.596786
											CHANNELS 3 Xrotation Yrotation Zrotation
											JOINT RightHandIndex2
											{
												OFFSET -4.711273 0.000000 0.000000
												CHANNELS 3 Xrotation Yrotation Zrotation
												JOINT RightHandIndex3
												{
													OFFSET -2.886131 0.000000 0.000000
													CHANNELS 3 Xrotation Yrotation Zrotation
													JOINT RightHandIndex4
													{
														OFFSET -6.145920 0.000000 0.000000
														CHANNELS 3 Xrotation Yrotation Zrotation
														End Site
														{
															OFFSET 0.000000 0.000000 0.000000
														}
													}
												}
											}
										}
										JOINT RightHandMiddle1
										{
											OFFSET -18.013008 0.000000 0.000000
											CHANNELS 3 Xrotation Yrotation Zrotation
											JOINT RightHandMiddle2
											{
												OFFSET -4.946693 0.000000 0.000000
												CHANNELS 3 Xrotation Yrotation Zrotation
												JOINT RightHandMiddle3
												{
													OFFSET -3.342232 0.000000 0.000000
													CHANNELS 3 Xrotation Yrotation Zrotation
													JOINT RightHandMiddle4
													{
														OFFSET -4.461754 0.000000 0.000000
														CHANNELS 3 Xrotation Yrotation Zrotation
														End Site
														{
															OFFSET 0.000000 0.000000 0.000000
														}
													}
												}
											}
										}
										JOINT RightHandRing1
										{
											OFFSET -15.849876 -0.102936 -4.126237
											CHANNELS 3 Xrotation Yrotation Zrotation
											JOINT RightHandRing2
											{
												OFFSET -3.527054 0.000000 0.000000
												CHANNELS 3 Xrotation Yrotation Zrotation
												JOINT RightHandRing3
												{
													OFFSET -2.961098 0.000000 0.000000
													CHANNELS 3 Xrotation Yrotation Zrotation
													JOINT RightHandRing4
													{
														OFFSET -4.927200 0.000000 0.000000
														CHANNELS 3 Xrotation Yrotation Zrotation
														End Site
														{
															OFFSET 0.000000 0.000000 0.000000
														}
													}
												}
											}
										}
										JOINT RightHandPinky1
										{
											OFFSET -12.791786 -0.832077 -6.799222
											CHANNELS 3 Xrotation Yrotation Zrotation
											JOINT RightHandPinky2
											{
												OFFSET -3.327133 0.000000 0.000000
												CHANNELS 3 Xrotation Yrotation Zrotation
												JOINT RightHandPinky3
												{
													OFFSET -3.014900 0.000000 0.000000
													CHANNELS 3 Xrotation Yrotation Zrotation
													JOINT RightHandPinky4
													{
														OFFSET -5.847786 0.000000 0.000000
														CHANNELS 3 Xrotation Yrotation Zrotation
														End Site
														{
															OFFSET 0.000000 0.000000 0.000000
														}
													}
												}
											}
										}
									}
								}
							}
						}
					}
				}
			}
		}
	}
	JOINT LeftUpLeg
	{
		OFFSET 13.026900 -6.336304 -1.092800
		CHANNELS 3 Xrotation Yrotation Zrotation
		JOINT LeftLeg
		{
			OFFSET 0.524474 -46.096886 9.782700
			CHANNELS 3 Xrotation Yrotation Zrotation
			JOINT LeftFoot
			{
				OFFSET -0.524474 -53.427422 -12.948200
				CHANNELS 3 Xrotation Yrotation Zrotation
				JOINT LeftToeBase
				{
					OFFSET 0.192200 -14.009700 16.364100
					CHANNELS 3 Xrotation Yrotation Zrotation
					JOINT LeftToe_End
					{
						OFFSET -1.784700 -0.561700 9.474800
						CHANNELS 3 Xrotation Yrotation Zrotation
						End Site
						{
							OFFSET 0.000000 0.000000 0.000000
						}
					}
				}
			}
		}
	}
	JOINT RightUpLeg
	{
		OFFSET -12.883000 -6.336304 -1.092800
		CHANNELS 3 Xrotation Yrotation Zrotation
		JOINT RightLeg
		{
			OFFSET -0.524587 -46.096825 9.782800
			CHANNELS 3 Xrotation Yrotation Zrotation
			JOINT RightFoot
			{
				OFFSET 0.524587 -53.427383 -12.948300
				CHANNELS 3 Xrotation Yrotation Zrotation
				JOINT RightToeBase
				{
					OFFSET -0.192200 -14.009700 16.364100
					CHANNELS 3 Xrotation Yrotation Zrotation
					JOINT RightToe_End
					{
						OFFSET 1.784700 -0.561700 9.474800
						CHANNELS 3 Xrotation Yrotation Zrotation
						End Site
						{
							OFFSET 0.000000 0.000000 0.000000
						}
					}
				}
			}
		}
	}
}
MOTION
Frames: 5
Frame Time: 0.016667
-4.454655 98.875458 97.863205 31.971047 15.075389 -5.004937 4.693407 -1.487583 0.076533 9.441412 0.085016 4.172061 0.000000 0.000000 0.000000 9.441405 0.085017 4.172058 -7.147122 0.629940 -0.577765 -4.884827 0.126167 2.445931 -0.000001 -0.000000 -0.000000 3.345513 -20.374547 5.851157 0.000000 0.000000 0.000000 -45.404147 -21.632024 -43.071743 105.129514 -62.566213 117.849751 32.351700 22.518548 68.310525 -22.329919 -10.232672 -0.665742 -13.008736 33.638794 5.466822 -0.000002 0.000009 0.000006 0.000002 0.000001 -0.000000 -3.249110 -3.487663 -45.487690 -11.741060 -5.662294 -117.786325 -0.000003 -0.000004 -0.000005 -0.000004 0.000000 -0.000000 -1.607291 -1.437535 -44.852838 -8.864432 -8.229470 -108.221636 -0.000003 -0.000003 -0.000002 0.000001 0.000000 0.000001 1.621460 4.447397 -42.845237 -1.055324 -8.990365 -99.406314 -0.000000 0.000007 0.000001 0.000001 0.000001 0.000003 2.581078 6.861468 -50.366375 0.502848 -8.788548 -83.370273 0.000004 0.000003 0.000005 0.000001 0.000000 -0.000004 1.512606 10.066767 -3.702969 0.000000 0.000000 0.000000 -39.856869 5.966725 40.669777 110.736607 51.476742 -131.206049 41.008575 -31.696121 -49.398787 -31.480578 10.386580 -14.209263 -13.008697 -33.638832 -5.466812 0.000007 -0.000007 0.000017 -0.000001 -0.000001 -0.000001 -3.485979 1.851561 32.874424 -8.875877 5.007750 106.188138 0.000002 -0.000001 -0.000006 0.000000 0.000000 0.000001 -2.051660 0.230815 37.937111 -6.364967 7.372382 96.576880 0.000002 0.000003 -0.000006 0.000001 0.000000 -0.000001 2.774045 -3.553491 41.587038 -1.339034 10.439946 83.973126 0.000001 0.000002 -0.000004 0.000000 -0.000000 -0.000001 4.714849 -4.516903 49.238789 -1.408714 11.737800 71.641977 -0.000000 0.000001 -0.000003 0.000000 0.000000 -0.000003 -11.318781 8.393849 3.482628 27.845947 18.667694 0.627760 -20.351910 1.033613 -27.806800 -22.328686 -9.233663 5.803416 -0.000000 0.000001 -0.000000 -73.557347 -5.934006 -7.228128 62.288962 -28.418891 -1.147024 -7.971859 -0.613309 1.353852 -8.095339 8.380788 6.746003 0.000000 -0.000000 0.000000 
-4.496137 98.663963 98.087036 32.181205 15.086884 -5.051380 4.612327 -1.493543 0.078102 9.279514 0.081829 4.174584 0.000000 0.000000 0.000000 9.279520 0.081827 4.174586 -7.203882 0.623596 -0.573728 -4.979432 0.067747 2.427053 0.000003 -0.000000 0.000000 3.403882 -20.465914 6.046227 0.000000 0.000000 0.000000 -45.550754 -21.701386 -42.949234 104.319357 -62.881071 117.063186 32.170737 22.449001 68.336241 -22.329931 -10.232706 -0.665745 -13.008737 33.638818 5.466827 -0.000004 0.000008 0.000006 -0.000001 -0.000002 0.000001 -3.249100 -3.487657 -45.487697 -11.741062 -5.662303 -117.786339 -0.000003 -0.000005 -0.000004 -0.000001 0.000000 0.000000 -1.607298 -1.437542 -44.852838 -8.864466 -8.229493 -108.221643 -0.000005 -0.000003 -0.000001 -0.000000 -0.000000 0.000001 1.621484 4.447395 -42.845234 -1.055353 -8.990365 -99.406320 -0.000001 0.000007 0.000002 -0.000001 0.000000 -0.000000 2.581065 6.861451 -50.366368 0.502853 -8.788546 -83.370273 0.000006 0.000002 0.000002 0.000003 -0.000000 -0.000001 1.519934 10.005079 -3.875171 0.000000 0.000000 0.000000 -40.127262 6.219985 40.746730 110.235305 51.780463 -130.620920 41.065802 -31.594000 -49.231973 -31.480574 10.386575 -14.209251 -13.008722 -33.638842 -5.466831 0.000004 -0.000008 0.000018 -0.000001 -0.000002 -0.000001 -3.485982 1.851568 32.874435 -8.875863 5.007750 106.188138 0.000002 -0.000001 -0.000012 0.000001 0.000000 0.000002 -2.051661 0.230802 37.937131 -6.364939 7.372381 96.576880 0.000001 0.000003 -0.000007 -0.000000 0.000000 0.000001 2.774048 -3.553491 41.587055 -1.339053 10.439977 83.973132 0.000001 0.000004 0.000000 0.000001 -0.000000 -0.000004 4.714848 -4.516897 49.238806 -1.408715 11.737786 71.641984 -0.000001 0.000002 -0.000004 -0.000000 -0.000000 0.000003 -11.562999 8.374235 3.591867 28.166216 18.648568 0.631892 -20.296956 0.959512 -28.050955 -22.617307 -9.324216 5.837559 0.000000 0.000004 -0.000000 -73.924312 -6.007418 -7.265660 62.735062 -28.375133 -1.140292 -8.057270 -0.611468 1.287807 -8.382348 8.330478 6.868447 0.000000 0.000000 0.000000 
-4.533698 98.455246 98.307175 32.397879 15.103613 -5.101176 4.530362 -1.499398 0.081653 9.115786 0.078892 4.180705 0.000000 0.000000 0.000000 9.115793 0.078888 4.180705 -7.260783 0.622990 -0.571326 -5.077534 0.011015 2.406298 0.000005 0.000001 -0.000000 3.462211 -20.556776 6.238191 0.000000 0.000000 0.000000 -45.726156 -21.783025 -42.867282 103.432403 -63.200376 116.209057 32.017956 22.348604 68.350734 -22.329927 -10.232701 -0.665744 -13.008737 33.638822 5.466827 -0.000002 0.000008 0.000006 -0.000002 0.000001 0.000003 -3.249098 -3.487657 -45.487707 -11.741049 -5.662305 -117.786312 -0.000002 -0.000005 -0.000005 -0.000000 -0.000000 0.000000 -1.607305 -1.437550 -44.852821 -8.864459 -8.229475 -108.221622 -0.000003 -0.000004 -0.000001 -0.000003 -0.000000 0.000001 1.621474 4.447394 -42.845234 -1.055306 -8.990359 -99.406314 0.000000 0.000007 -0.000000 0.000000 0.000000 0.000001 2.581059 6.861451 -50.366378 0.502851 -8.788557 -83.370279 0.000006 0.000001 0.000000 -0.000000 0.000000 -0.000000 1.527256 9.940851 -4.054026 0.000000 0.000000 0.000000 -40.408390 6.474595 40.823634 109.704046 52.094970 -130.008143 41.123862 -31.479550 -49.070012 -31.480581 10.386558 -14.209249 -13.008698 -33.638825 -5.466796 0.000005 -0.000009 0.000017 0.000001 0.000000 0.000000 -3.485979 1.851570 32.874428 -8.875868 5.007753 106.188152 0.000002 -0.000001 -0.000010 0.000000 -0.000000 0.000002 -2.051661 0.230805 37.937131 -6.364967 7.372384 96.576894 0.000001 0.000003 -0.000006 0.000001 -0.000001 -0.000000 2.774051 -3.553492 41.587051 -1.339039 10.439964 83.973132 0.000002 0.000002 -0.000003 -0.000000 0.000000 -0.000002 4.714831 -4.516887 49.238789 -1.408706 11.737767 71.641977 0.000001 0.000002 -0.000001 0.000000 0.000000 0.000001 -11.815117 8.353814 3.699844 28.483677 18.630142 0.635635 -20.234939 0.884507 -28.293285 -22.906214 -9.423594 5.867534 0.000000 -0.000001 -0.000000 -74.289051 -6.085096 -7.312307 63.168103 -28.325672 -1.133275 -8.149759 -0.611884 1.231408 -8.650458 8.281832 6.979079 0.000000 -0.000001 -0.000000 
-4.567729 98.246284 98.526779 32.616930 15.119918 -5.150261 4.447852 -1.505870 0.084403 8.951155 0.075004 4.186375 0.000000 0.000000 0.000000 8.951165 0.075006 4.186375 -7.318542 0.628105 -0.570274 -5.178925 -0.043948 2.385304 -0.000001 0.000000 0.000000 3.520945 -20.647262 6.429786 0.000000 0.000000 0.000000 -45.923077 -21.869200 -42.821663 102.479236 -63.518328 115.301216 31.897301 22.218551 68.346472 -22.329924 -10.232695 -0.665731 -13.008735 33.638811 5.466832 -0.000005 0.000010 0.000005 0.000000 0.000001 -0.000001 -3.249105 -3.487661 -45.487707 -11.741040 -5.662296 -117.786298 0.000002 -0.000005 -0.000005 0.000000 -0.000000 -0.000000 -1.607288 -1.437527 -44.852845 -8.864462 -8.229496 -108.221622 -0.000002 -0.000003 -0.000000 -0.000002 0.000000 0.000001 1.621481 4.447403 -42.845240 -1.055317 -8.990366 -99.406314 -0.000000 0.000007 0.000001 0.000001 0.000000 0.000001 2.581079 6.861472 -50.366361 0.502866 -8.788560 -83.370279 0.000006 0.000001 0.000003 0.000000 -0.000001 -0.000004 1.534765 9.876782 -4.238351 0.000000 0.000000 0.000000 -40.697030 6.729573 40.910422 109.140686 52.419031 -129.364124 41.180559 -31.352027 -48.919714 -31.480567 10.386574 -14.209240 -13.008715 -33.638856 -5.466844 0.000006 -0.000009 0.000016 -0.000000 0.000003 -0.000002 -3.485989 1.851575 32.874445 -8.875874 5.007735 106.188125 0.000003 -0.000001 -0.000008 -0.000001 0.000000 0.000000 -2.051676 0.230813 37.937118 -6.364953 7.372378 96.576887 0.000001 0.000003 -0.000008 0.000000 0.000000 -0.000001 2.774038 -3.553483 41.587055 -1.339033 10.439955 83.973153 0.000002 0.000002 -0.000001 0.000000 0.000001 0.000001 4.714823 -4.516875 49.238803 -1.408725 11.737779 71.641977 0.000001 0.000001 -0.000004 0.000001 -0.000001 0.000000 -12.068077 8.333107 3.804616 28.799004 18.611541 0.638659 -20.167672 0.809122 -28.533416 -23.198753 -9.526250 5.894279 0.000000 0.000001 -0.000000 -74.651447 -6.164941 -7.365665 63.595768 -28.256428 -1.125027 -8.247465 -0.613853 1.181976 -8.906581 8.223707 7.077278 -0.000000 -0.000001 -0.000000 
-4.599319 98.034447 98.748428 32.834560 15.129240 -5.195939 4.365186 -1.513494 0.083996 8.786294 0.069151 4.187630 0.000000 0.000000 0.000000 8.786291 0.069156 4.187627 -7.375610 0.638789 -0.570446 -5.283603 -0.097786 2.366242 -0.000000 0.000000 -0.000001 3.580661 -20.737421 6.622317 0.000000 0.000000 0.000000 -46.132652 -21.954654 -42.797774 101.473887 -63.830700 114.352960 31.805817 22.066099 68.319186 -22.329929 -10.232712 -0.665753 -13.008740 33.638798 5.466827 -0.000007 0.000011 0.000004 -0.000001 -0.000002 0.000001 -3.249101 -3.487673 -45.487697 -11.741035 -5.662311 -117.786312 -0.000001 -0.000004 -0.000004 -0.000002 0.000000 -0.000000 -1.607293 -1.437560 -44.852814 -8.864464 -8.229479 -108.221636 -0.000003 -0.000003 -0.000001 -0.000001 -0.000000 -0.000000 1.621481 4.447380 -42.845230 -1.055347 -8.990380 -99.406320 -0.000000 0.000007 0.000002 -0.000000 -0.000000 -0.000001 2.581072 6.861454 -50.366378 0.502854 -8.788551 -83.370293 0.000005 0.000002 0.000002 0.000000 -0.000000 -0.000005 1.543042 9.816508 -4.426534 0.000000 0.000000 0.000000 -40.990192 6.984707 41.013285 108.542313 52.751894 -128.683564 41.230877 -31.213292 -48.788458 -31.480578 10.386580 -14.209228 -13.008701 -33.638835 -5.466831 0.000004 -0.000007 0.000018 -0.000002 -0.000002 0.000000 -3.485978 1.851590 32.874421 -8.875845 5.007751 106.188152 0.000001 -0.000001 -0.000008 -0.000001 0.000000 0.000001 -2.051664 0.230816 37.937118 -6.364959 7.372375 96.576915 0.000002 0.000003 -0.000008 0.000001 0.000000 0.000001 2.774025 -3.553463 41.587062 -1.339031 10.439965 83.973132 0.000001 0.000003 -0.000002 0.000001 0.000000 0.000004 4.714829 -4.516873 49.238800 -1.408719 11.737767 71.641970 0.000000 0.000001 -0.000006 0.000000 -0.000000 -0.000003 -12.315523 8.312478 3.905617 29.112739 18.592193 0.640933 -20.098583 0.734151 -28.770751 -23.497347 -9.625230 5.918328 0.000000 -0.000000 -0.000000 -75.011624 -6.245318 -7.420667 64.024185 -28.159034 -1.114988 -8.347306 -0.616402 1.136263 -9.157095 8.148802 7.163153 0.000000 -0.000000 -0.000000 
